<svg id="Calque_1" data-name="Calque 1" xmlns="http://www.w3.org/2000/svg" viewBox="0 0 32 32"><path d="M6,4h8v6a2,2,0,0,0,2,2h6v4h2V10a1,1,0,0,0-.29-.71l-7-7A1,1,0,0,0,16,2H6A2,2,0,0,0,4,4V28a2,2,0,0,0,2,2h8V28H6Zm10,.41L21.59,10H16Z"/><path d="M26,17c0,4.27-.42,9.22-1.06,10.72-.52-1.09-1-4.37-1-7.68V20H22v.07c0,1.24-.26,3.28-.83,3.86C21.06,24,21,24,21,24c-.61,0-1-1.78-1-3H18c0,.9-.31,2.67-1,2.67s-1-.23-1-.67H14a2.75,2.75,0,0,0,3,2.67,2.4,2.4,0,0,0,1.9-.9A2.41,2.41,0,0,0,21,26a2.1,2.1,0,0,0,1.33-.47C22.9,29.1,24,30,25,30c.74,0,3,0,3-13Z"/></svg>